<svg width="1280" height="900" viewBox="0 0 1280 900" fill="none" xmlns="http://www.w3.org/2000/svg">
  <rect width="1280" height="900" rx="36" fill="url(#paint0_linear)"/>
  <g opacity="0.9">
    <circle cx="232" cy="208" r="18" fill="#8EF1D8"/>
    <circle cx="510" cy="140" r="14" fill="#A7C8FF"/>
    <circle cx="808" cy="232" r="22" fill="#64D9BA"/>
    <circle cx="1058" cy="154" r="16" fill="#A7C8FF"/>
    <circle cx="364" cy="474" r="20" fill="#A7C8FF"/>
    <circle cx="670" cy="404" r="14" fill="#8EF1D8"/>
    <circle cx="978" cy="510" r="18" fill="#8EF1D8"/>
    <circle cx="248" cy="706" r="22" fill="#64D9BA"/>
    <circle cx="582" cy="744" r="14" fill="#A7C8FF"/>
    <circle cx="944" cy="718" r="18" fill="#A7C8FF"/>
  </g>
  <g opacity="0.7" stroke-linecap="round">
    <path d="M232 208L510 140" stroke="#88B9FF" stroke-width="4"/>
    <path d="M510 140L808 232" stroke="#88B9FF" stroke-width="4"/>
    <path d="M808 232L1058 154" stroke="#88B9FF" stroke-width="4"/>
    <path d="M232 208L364 474" stroke="#59D4B4" stroke-width="4"/>
    <path d="M364 474L670 404" stroke="#88B9FF" stroke-width="4"/>
    <path d="M670 404L978 510" stroke="#59D4B4" stroke-width="4"/>
    <path d="M364 474L248 706" stroke="#59D4B4" stroke-width="4"/>
    <path d="M248 706L582 744" stroke="#88B9FF" stroke-width="4"/>
    <path d="M582 744L944 718" stroke="#88B9FF" stroke-width="4"/>
    <path d="M808 232L670 404" stroke="#59D4B4" stroke-width="4"/>
    <path d="M670 404L582 744" stroke="#59D4B4" stroke-width="4"/>
    <path d="M978 510L944 718" stroke="#59D4B4" stroke-width="4"/>
  </g>
  <g opacity="0.16">
    <rect x="84" y="88" width="1112" height="724" rx="28" stroke="white" stroke-width="2"/>
    <rect x="144" y="148" width="992" height="604" rx="28" stroke="white" stroke-width="2"/>
  </g>
  <defs>
    <linearGradient id="paint0_linear" x1="104" y1="68" x2="1178" y2="818" gradientUnits="userSpaceOnUse">
      <stop stop-color="#0A1623"/>
      <stop offset="0.48" stop-color="#10273B"/>
      <stop offset="1" stop-color="#0C1521"/>
    </linearGradient>
  </defs>
</svg>
